<?xml version="1.0" standalone="no"?><!DOCTYPE svg PUBLIC "-//W3C//DTD SVG 1.1//EN" "http://www.w3.org/Graphics/SVG/1.1/DTD/svg11.dtd"><svg class="icon" width="200px" height="200.00px" viewBox="0 0 1024 1024" version="1.1" xmlns="http://www.w3.org/2000/svg"><path d="M705.386667 177.536c56.682667 0 109.546667 22.122667 148.8 62.272 76.522667 78.272 72.490667 207.232-9.002667 287.424L509.738667 857.493333 174.250667 527.253333c-81.472-80.213333-85.525333-209.152-9.002667-287.424 39.274667-40.170667 92.117333-62.272 148.8-62.272 55.189333 0 107.029333 21.12 145.962667 59.413334l49.706666 48.938666 49.706667-48.938666a206.741333 206.741333 0 0 1 145.962667-59.434667M314.069333 106.688c-72.512 0-144.981333 27.861333-199.488 83.605333-105.024 107.456-97.109333 282.048 9.962667 387.456L476.586667 924.288a47.125333 47.125333 0 0 0 66.261333 0l352.021333-346.538667c107.093333-105.408 114.986667-280.021333 9.962667-387.456-54.485333-55.744-126.997333-83.605333-199.488-83.605333-70.826667 0-141.610667 26.602667-195.648 79.786667-53.973333-53.205333-124.821333-79.786667-195.626667-79.786667z" fill="#98C6F2" /></svg>