<?xml version="1.0" standalone="no"?><!DOCTYPE svg PUBLIC "-//W3C//DTD SVG 1.1//EN" "http://www.w3.org/Graphics/SVG/1.1/DTD/svg11.dtd"><svg class="icon" width="200px" height="200.00px" viewBox="0 0 1024 1024" version="1.1" xmlns="http://www.w3.org/2000/svg"><path d="M718.938953 543.670645a559.403287 559.403287 0 0 0-60.904841-22.519437 281.492962 281.492962 0 1 0-295.311708 0A511.805386 511.805386 0 0 0 0.108288 969.492726 51.180539 51.180539 0 0 0 51.288827 1024h495.683516a25.590269 25.590269 0 0 0 23.287145-35.570474 46.318387 46.318387 0 0 0-42.479847-27.637491H65.363475A450.132837 450.132837 0 0 1 510.378258 563.375153a441.688048 441.688048 0 0 1 204.722154 51.180538 1.791319 1.791319 0 0 0 1.535416 0 38.641307 38.641307 0 0 0 2.303125-70.885046zM292.860969 281.88219a217.517289 217.517289 0 1 1 217.517289 217.517289 217.773192 217.773192 0 0 1-217.517289-217.517289z m727.019551 505.919624a31.476031 31.476031 0 0 1-29.42881 19.96041H665.45529a31.987837 31.987837 0 0 1 0-63.975673h251.552347l-45.550679-45.550679a31.987837 31.987837 0 1 1 45.294776-45.038874l97.243024 97.243023a31.476031 31.476031 0 0 1 5.885762 37.361793z m-382.318624 92.12497a31.987837 31.987837 0 0 1 29.684713-19.96041h324.484614a31.987837 31.987837 0 0 1 0 63.975673h-251.552347l45.55068 45.550679a31.987837 31.987837 0 0 1-45.294777 45.038874l-97.498926-97.243023a32.243739 32.243739 0 0 1-5.373957-37.361793z" /></svg>