<?xml version="1.0" standalone="no"?><!DOCTYPE svg PUBLIC "-//W3C//DTD SVG 1.1//EN" "http://www.w3.org/Graphics/SVG/1.1/DTD/svg11.dtd"><svg class="icon" width="200px" height="190.69px" viewBox="0 0 1074 1024" version="1.1" xmlns="http://www.w3.org/2000/svg"><path d="M608.711316 447.352648c55.796937-25.361972 109.902877-51.569942 160.62682-77.777913s91.303897-44.80595 120.893864-57.486935a214.733759 214.733759 0 0 1 72.704919-17.753981 109.902877 109.902877 0 0 1 77.776912 30.434966 98.06689 98.06689 0 0 1 32.970963 75.240916 107.366879 107.366879 0 0 1-16.061982 53.25994 84.539905 84.539905 0 0 1-33.816962 35.50796 1677.288116 1677.288116 0 0 1-367.751587 96.376892c20.289977 21.979975 54.105939 52.414941 89.6129 91.303897s54.105939 57.486935 54.950938 59.177934c12.681986 17.75398 31.279965 40.579954 54.106939 66.787925a496.254443 496.254443 0 0 1 48.187946 62.55993 104.829882 104.829882 0 0 1 13.525985 54.950938 98.912889 98.912889 0 0 1-31.279965 72.704918 108.211878 108.211878 0 0 1-80.31291 31.279965c-32.970963 0-69.323922-25.361972-110.748876-76.085914A1606.274196 1606.274196 0 0 1 536.851397 672.230395C471.75547 790.588262 426.949521 869.210174 404.967545 907.254131a407.486542 407.486542 0 0 1-64.249928 84.540905 101.448886 101.448886 0 0 1-71.01492 28.743968 106.52088 106.52088 0 0 1-79.467911-32.970963 103.139884 103.139884 0 0 1-31.279965-70.168921 89.612899 89.612899 0 0 1 10.143989-51.569942 1919.074845 1919.074845 0 0 1 253.622715-280.674685q-108.211878-16.908981-193.598782-37.197958a1216.541634 1216.541634 0 0 1-184.298793-60.869932A84.539905 84.539905 0 0 1 14.389984 451.580643 110.747876 110.747876 0 0 1 0.018 400.8557a98.06689 98.06689 0 0 1 32.969963-75.241916 107.366879 107.366879 0 0 1 76.086915-30.433966 218.114755 218.114755 0 0 1 77.777912 18.59898q46.496948 18.598979 118.356867 54.105939l163.163817 79.467911c-10.989988-54.105939-20.289977-116.665869-27.897969-186.834791s-10.989988-118.356867-10.989987-144.564837a120.047865 120.047865 0 0 1 30.433965-84.539905A99.757888 99.757888 0 0 1 537.696396 0.13115a98.06689 98.06689 0 0 1 76.932914 33.815962 132.729851 132.729851 0 0 1 30.433966 91.303897c0 10.144989 0 30.434966-5.071995 61.714931s-7.608991 67.632924-12.680985 110.748876-11.835987 92.994896-18.59998 148.791833z" /></svg>