<?xml version="1.0" standalone="no"?><!DOCTYPE svg PUBLIC "-//W3C//DTD SVG 1.1//EN" "http://www.w3.org/Graphics/SVG/1.1/DTD/svg11.dtd"><svg class="icon" width="200px" height="200.00px" viewBox="0 0 1024 1024" version="1.1" xmlns="http://www.w3.org/2000/svg"><path d="M475.3 863.3c-209.7 0-380.2-170.6-380.2-380.2s170.6-380.2 380.2-380.2 380.2 170.6 380.2 380.2c0 209.7-170.6 380.2-380.2 380.2z m0-677.1c-163.7 0-296.9 133.2-296.9 296.9S311.6 780 475.3 780s296.9-133.2 296.9-296.9S639 186.2 475.3 186.2z" fill="#98C6F2" /><path d="M886.3 926.2c-10.3 0-20.5-3.8-28.6-11.4L685.9 752.7c-16.7-15.8-17.5-42.1-1.7-58.9 15.8-16.7 42.1-17.5 58.9-1.7L915 854.3c16.7 15.8 17.5 42.1 1.7 58.9-8.2 8.6-19.3 13-30.4 13z" fill="#98C6F2" /></svg>