<?xml version="1.0" standalone="no"?><!DOCTYPE svg PUBLIC "-//W3C//DTD SVG 1.1//EN" "http://www.w3.org/Graphics/SVG/1.1/DTD/svg11.dtd"><svg class="icon" width="200px" height="200.00px" viewBox="0 0 1024 1024" version="1.1" xmlns="http://www.w3.org/2000/svg"><path d="M899.806 398.82c-10.592 0-21.152-4.16-29.312-12.48a45.44 45.44 0 0 1-0.736-62.176c51.168-54.944 50.112-143.2-2.336-196.8a129.343 129.343 0 0 0-94.431-39.551 129.183 129.183 0 0 0-93.472 41.984 40.64 40.64 0 0 1-59.36 0.768 45.44 45.44 0 0 1-0.736-62.144c83.488-89.663 221.023-91.423 306.59-3.968 85.6 87.424 87.296 231.455 3.809 321.086a40.96 40.96 0 0 1-30.016 13.28z" fill="#98C6F2" /><path d="M847.198 454.819c-10.56 0-21.12-4.16-29.28-12.48L567.584 186.564a45.44 45.44 0 0 1-0.736-62.175 40.64 40.64 0 0 1 59.327-0.768L876.51 379.395c16.608 16.96 16.96 44.8 0.768 62.144a40.96 40.96 0 0 1-30.08 13.28z" fill="#98C6F2" /><path d="M132.098 698.114c-10.56 0-21.12-4.16-29.28-12.48a45.44 45.44 0 0 1-0.736-62.144L619.615 67.91a40.64 40.64 0 0 1 59.328-0.769c16.608 16.96 16.928 44.8 0.736 62.144l-517.533 555.58a40.928 40.928 0 0 1-30.048 13.249z" fill="#98C6F2" /><path d="M74.018 1022.976c-2.528 0-5.088-0.224-7.68-0.704-22.752-4.416-37.855-27.328-33.631-51.2l56.48-320.894c4.223-23.84 26.08-39.68 48.863-35.232 22.816 4.384 37.888 27.328 33.664 51.2l-56.48 320.83c-3.712 21.152-21.344 35.968-41.216 35.968z m308.639-68.832c-10.56 0-21.12-4.16-29.28-12.48a45.44 45.44 0 0 1-0.768-62.175l517.565-555.581a40.64 40.64 0 0 1 59.328-0.768c16.608 16.96 16.928 44.767 0.736 62.143L412.705 940.864a40.928 40.928 0 0 1-30.048 13.28z" fill="#98C6F2" /><path d="M73.986 1023.04c-19.456 0-36.895-14.208-41.055-34.912-4.736-23.776 9.76-47.04 32.48-52.064l304.894-67.071c22.72-4.96 44.928 10.24 49.695 33.984 4.768 23.744-9.76 47.04-32.447 52.063l-304.927 67.04c-2.88 0.64-5.76 0.96-8.64 0.96z m871.452 0.192H595.68c-23.136 0-41.92-19.68-41.92-43.968 0-24.256 18.784-43.936 41.92-43.936h349.758c23.168 0 41.92 19.68 41.92 43.936 0 24.288-18.752 43.968-41.92 43.968z" fill="#98C6F2" /></svg>